<svg width="40" height="40" viewBox="0 0 40 40" fill="none" xmlns="http://www.w3.org/2000/svg">
<path d="M11.667 11.6667V8.33333C11.667 7.36812 11.9464 6.42356 12.4714 5.61364C12.9965 4.80373 13.7447 4.16309 14.6258 3.76906C15.5069 3.37503 16.4832 3.24444 17.4369 3.39307C18.3906 3.5417 19.2809 3.96319 20.0003 4.60666C20.7197 3.96319 21.61 3.5417 22.5637 3.39307C23.5174 3.24444 24.4937 3.37503 25.3749 3.76906C26.256 4.16309 27.0042 4.80373 27.5292 5.61364C28.0543 6.42356 28.3336 7.36812 28.3337 8.33333V11.6667H30.8337C31.4967 11.6667 32.1326 11.9301 32.6014 12.3989C33.0703 12.8677 33.3337 13.5036 33.3337 14.1667V30.8417C33.3337 32.3865 32.72 33.8682 31.6276 34.9606C30.5352 36.053 29.0535 36.6667 27.5087 36.6667H13.3337C11.5655 36.6667 9.86986 35.9643 8.61961 34.714C7.36937 33.4638 6.66699 31.7681 6.66699 30V14.1667C6.66699 13.5036 6.93038 12.8677 7.39922 12.3989C7.86807 11.9301 8.50395 11.6667 9.16699 11.6667H11.667ZM22.7253 34.1667C22.0454 33.1913 21.6818 32.0306 21.6837 30.8417V14.1667H9.16699V30C9.16699 30.5472 9.27477 31.089 9.48416 31.5945C9.69356 32.1 10.0005 32.5594 10.3874 32.9463C10.7743 33.3332 11.2336 33.6401 11.7391 33.8495C12.2447 34.0589 12.7865 34.1667 13.3337 34.1667H22.7253ZM19.167 11.6667V8.33333C19.167 7.67028 18.9036 7.0344 18.4348 6.56556C17.9659 6.09672 17.33 5.83333 16.667 5.83333C16.004 5.83333 15.3681 6.09672 14.8992 6.56556C14.4304 7.0344 14.167 7.67028 14.167 8.33333V11.6667H19.167ZM21.667 11.6667H25.8337V8.33333C25.8337 7.81872 25.6749 7.31663 25.379 6.8956C25.0832 6.47457 24.6645 6.15511 24.1803 5.98082C23.6961 5.80654 23.1699 5.78593 22.6736 5.9218C22.1773 6.05767 21.7349 6.3434 21.407 6.73999C21.5753 7.23999 21.667 7.77666 21.667 8.33333V11.6667ZM24.1837 30.8417C24.1837 31.7235 24.534 32.5692 25.1575 33.1928C25.7811 33.8163 26.6268 34.1667 27.5087 34.1667C28.3905 34.1667 29.2362 33.8163 29.8598 33.1928C30.4833 32.5692 30.8337 31.7235 30.8337 30.8417V14.1667H24.1837V30.8417Z" fill="black"/>
</svg>
